<?xml version="1.0" encoding="UTF-8"?> <svg xmlns="http://www.w3.org/2000/svg" width="32" height="26" viewBox="0 0 32 26" fill="none"> <path d="M5.93282 9.15922H8.43905L8.82434 20.6792H5.59937L5.93282 9.15922ZM3.84001 21.3192H28.16V22.5992H30.08V24.5192H31.36V25.7992H0.640015V24.5192H1.92001V22.5992H3.84001V21.3192ZM29.44 5.8389L16.0013 0.199219L2.56001 5.8389V6.59922H29.44V5.8389ZM5.12002 7.23922H26.88V8.51922H5.12002V7.23922ZM23.5111 9.15922H26.016L26.4045 20.6792H23.1751L23.5111 9.15922ZM17.6538 9.15922H20.1587L20.5427 20.6792H17.3165L17.6538 9.15922ZM11.7952 9.15922H14.3008L14.6823 20.6792H11.4573L11.7952 9.15922Z" fill="white"></path> </svg> 