<?xml version="1.0" encoding="UTF-8"?> <svg xmlns="http://www.w3.org/2000/svg" width="28" height="28" viewBox="0 0 28 28" fill="none"> <path d="M23.3333 0.666687H4.66666C3.60579 0.666687 2.58838 1.08811 1.83823 1.83826C1.08808 2.58841 0.666656 3.60582 0.666656 4.66669V23.3334C0.666656 24.3942 1.08808 25.4116 1.83823 26.1618C2.58838 26.9119 3.60579 27.3334 4.66666 27.3334H23.3333C23.5526 27.3303 23.7712 27.308 23.9867 27.2667L24.3867 27.1734H24.5467L25.04 26.9867L25.2133 26.8934C25.3467 26.8134 25.4933 26.7467 25.6267 26.6534C25.8047 26.5224 25.9739 26.3798 26.1333 26.2267L26.2267 26.1067C26.3576 25.974 26.4779 25.8314 26.5867 25.68L26.7067 25.5067C26.7998 25.3582 26.8801 25.2021 26.9467 25.04C26.9832 24.976 27.0145 24.9092 27.04 24.84C27.1067 24.68 27.1467 24.5067 27.2 24.3334V24.1334C27.2756 23.8728 27.3203 23.6043 27.3333 23.3334V4.66669C27.3333 3.60582 26.9119 2.58841 26.1618 1.83826C25.4116 1.08811 24.3942 0.666687 23.3333 0.666687ZM4.66666 24.6667C4.31303 24.6667 3.9739 24.5262 3.72385 24.2762C3.4738 24.0261 3.33332 23.687 3.33332 23.3334V17.5867L7.71999 13.1867C7.84394 13.0617 7.99141 12.9625 8.15389 12.8948C8.31637 12.8271 8.49064 12.7923 8.66666 12.7923C8.84267 12.7923 9.01695 12.8271 9.17943 12.8948C9.3419 12.9625 9.48937 13.0617 9.61332 13.1867L21.08 24.6667H4.66666ZM24.6667 23.3334C24.6654 23.4977 24.6338 23.6605 24.5733 23.8134C24.5429 23.8783 24.5072 23.9408 24.4667 24C24.431 24.0565 24.3909 24.11 24.3467 24.16L17.2133 17.0267L18.3867 15.8534C18.5106 15.7284 18.6581 15.6292 18.8206 15.5615C18.983 15.4938 19.1573 15.459 19.3333 15.459C19.5093 15.459 19.6836 15.4938 19.8461 15.5615C20.0086 15.6292 20.156 15.7284 20.28 15.8534L24.6667 20.2534V23.3334ZM24.6667 16.48L22.16 14C21.397 13.276 20.3852 12.8724 19.3333 12.8724C18.2815 12.8724 17.2697 13.276 16.5067 14L15.3333 15.1734L11.4933 11.3334C10.7303 10.6093 9.71852 10.2057 8.66666 10.2057C7.61479 10.2057 6.60303 10.6093 5.83999 11.3334L3.33332 13.8134V4.66669C3.33332 4.31307 3.4738 3.97393 3.72385 3.72388C3.9739 3.47383 4.31303 3.33335 4.66666 3.33335H23.3333C23.6869 3.33335 24.0261 3.47383 24.2761 3.72388C24.5262 3.97393 24.6667 4.31307 24.6667 4.66669V16.48ZM16 6.00002C15.6044 6.00002 15.2177 6.11732 14.8889 6.33708C14.56 6.55684 14.3036 6.8692 14.1522 7.23465C14.0009 7.60011 13.9612 8.00224 14.0384 8.3902C14.1156 8.77816 14.3061 9.13453 14.5858 9.41423C14.8655 9.69394 15.2218 9.88442 15.6098 9.96159C15.9978 10.0388 16.3999 9.99916 16.7654 9.84778C17.1308 9.6964 17.4432 9.44006 17.6629 9.11116C17.8827 8.78226 18 8.39558 18 8.00002C18 7.46959 17.7893 6.96088 17.4142 6.58581C17.0391 6.21073 16.5304 6.00002 16 6.00002Z" fill="white"></path> </svg> 