<?xml version="1.0" encoding="UTF-8"?> <svg xmlns="http://www.w3.org/2000/svg" width="28" height="24" viewBox="0 0 28 24" fill="none"> <path d="M10.75 0.666626V2.62163C9.57414 2.15413 8.31331 1.91329 7.05248 1.91329C4.51664 1.91329 1.98081 2.87663 0.039978 4.81746L4.75748 9.53496H6.32998V11.1075C7.54831 12.3258 9.13498 12.9633 10.7358 13.0341V16.25H6.49998V20.5C6.49998 22.0583 7.77498 23.3333 9.33331 23.3333H23.5C25.8516 23.3333 27.75 21.435 27.75 19.0833V0.666626H10.75ZM9.17748 9.74746V6.70163H5.94748L4.47414 5.22829C5.29674 4.91084 6.17075 4.74756 7.05248 4.74663C8.95081 4.74663 10.7216 5.48329 12.0675 6.81496L14.065 8.81246L13.7816 9.09579C13.4257 9.45516 13.002 9.74036 12.5352 9.93489C12.0683 10.1294 11.5674 10.2294 11.0616 10.2291C10.3958 10.2291 9.74414 10.0591 9.17748 9.74746ZM24.9166 19.0833C24.9166 19.8625 24.2791 20.5 23.5 20.5C22.7208 20.5 22.0833 19.8625 22.0833 19.0833V16.25H13.5833V12.5808C14.3908 12.255 15.1416 11.7733 15.7933 11.1216L16.0766 10.8383L20.0858 14.8333H22.0833V12.8358L13.5833 4.37829V3.49996H24.9166V19.0833Z" fill="white"></path> </svg> 