<?xml version="1.0" encoding="UTF-8"?> <svg xmlns="http://www.w3.org/2000/svg" width="26" height="26" viewBox="0 0 26 26" fill="none"> <path d="M7.2 4.20001C6.72 4.20001 6.4 4.68001 6.4 5.00001V9.00001H4.8V5.00001C4.8 4.52001 4.48 4.20001 4 4.20001C3.52 4.20001 3.2 4.68001 3.2 5.00001V9.00001H1.6V5.00001C1.6 4.52001 1.28 4.20001 0.8 4.20001C0.32 4.20001 0 4.68001 0 5.00001V10.28C0 11.72 1.12 12.84 2.4 13V24.2C2.4 25.16 3.04 25.8 4 25.8C4.96 25.8 5.6 25.16 5.6 24.2V13C6.88 12.84 8 11.72 8 10.28V5.00001C8 4.68001 7.68 4.20001 7.2 4.20001ZM10.4 5.00001V14.6H12V24.2C12 25.16 12.64 25.8 13.6 25.8C14.56 25.8 15.2 25.16 15.2 24.2V0.200012C12.48 0.200012 10.4 2.28001 10.4 5.00001ZM21.6 3.40001C19.36 3.40001 17.6 5.80001 17.6 8.68001C17.44 10.6 18.4 12.36 20 13.48V24.2C20 25.16 20.64 25.8 21.6 25.8C22.56 25.8 23.2 25.16 23.2 24.2V13.48C24.8 12.36 25.76 10.6 25.6 8.68001C25.6 5.80001 23.84 3.40001 21.6 3.40001Z" fill="white"></path> </svg> 