<?xml version="1.0" encoding="UTF-8"?> <svg xmlns="http://www.w3.org/2000/svg" width="28" height="25" viewBox="0 0 28 25" fill="none"> <path d="M16.8267 3.33329L19.2667 5.99996H24.6667V22H3.33335V5.99996H8.73335L11.1734 3.33329H16.8267ZM18 0.666626H10L7.56002 3.33329H3.33335C1.86669 3.33329 0.666687 4.53329 0.666687 5.99996V22C0.666687 23.4666 1.86669 24.6666 3.33335 24.6666H24.6667C26.1334 24.6666 27.3334 23.4666 27.3334 22V5.99996C27.3334 4.53329 26.1334 3.33329 24.6667 3.33329H20.44L18 0.666626ZM14 9.99996C16.2 9.99996 18 11.8 18 14C18 16.2 16.2 18 14 18C11.8 18 10 16.2 10 14C10 11.8 11.8 9.99996 14 9.99996ZM14 7.33329C10.32 7.33329 7.33335 10.32 7.33335 14C7.33335 17.68 10.32 20.6666 14 20.6666C17.68 20.6666 20.6667 17.68 20.6667 14C20.6667 10.32 17.68 7.33329 14 7.33329Z" fill="white"></path> </svg> 