<?xml version="1.0" encoding="UTF-8"?> <svg xmlns="http://www.w3.org/2000/svg" width="1494" height="282" viewBox="0 0 1494 282" fill="none"> <path d="M108.112 226.304C87.76 226.304 69.424 221.888 53.104 213.056C36.784 204.032 23.92 191.648 14.512 175.904C5.296 160.16 0.688001 142.592 0.688001 123.2C0.688001 103.808 5.296 86.24 14.512 70.496C23.92 54.752 36.784 42.464 53.104 33.632C69.424 24.608 87.76 20.096 108.112 20.096C128.272 20.096 146.512 24.608 162.832 33.632C179.152 42.464 191.92 54.752 201.136 70.496C210.352 86.048 214.96 103.616 214.96 123.2C214.96 142.784 210.352 160.448 201.136 176.192C191.92 191.744 179.152 204.032 162.832 213.056C146.512 221.888 128.272 226.304 108.112 226.304ZM108.112 200.672C122.896 200.672 136.144 197.312 147.856 190.592C159.76 183.872 169.072 174.656 175.792 162.944C182.704 151.04 186.16 137.792 186.16 123.2C186.16 108.608 182.704 95.456 175.792 83.744C169.072 71.84 159.76 62.528 147.856 55.808C136.144 49.088 122.896 45.728 108.112 45.728C93.328 45.728 79.888 49.088 67.792 55.808C55.888 62.528 46.48 71.84 39.568 83.744C32.848 95.456 29.488 108.608 29.488 123.2C29.488 137.792 32.848 151.04 39.568 162.944C46.48 174.656 55.888 183.872 67.792 190.592C79.888 197.312 93.328 200.672 108.112 200.672ZM337.837 69.92C352.621 69.92 365.869 73.184 377.581 79.712C389.293 86.24 398.413 95.36 404.941 107.072C411.661 118.784 415.021 132.32 415.021 147.68C415.021 163.04 411.661 176.672 404.941 188.576C398.413 200.288 389.293 209.408 377.581 215.936C365.869 222.464 352.621 225.728 337.837 225.728C326.893 225.728 316.813 223.616 307.597 219.392C298.573 215.168 290.893 209.024 284.557 200.96V279.872H256.909V71.36H283.405V95.552C289.549 87.104 297.325 80.768 306.733 76.544C316.141 72.128 326.509 69.92 337.837 69.92ZM335.533 201.536C345.325 201.536 354.061 199.328 361.741 194.912C369.613 190.304 375.757 183.968 380.173 175.904C384.781 167.648 387.085 158.24 387.085 147.68C387.085 137.12 384.781 127.808 380.173 119.744C375.757 111.488 369.613 105.152 361.741 100.736C354.061 96.32 345.325 94.112 335.533 94.112C325.933 94.112 317.197 96.416 309.325 101.024C301.645 105.44 295.501 111.68 290.893 119.744C286.477 127.808 284.269 137.12 284.269 147.68C284.269 158.24 286.477 167.648 290.893 175.904C295.309 183.968 301.453 190.304 309.325 194.912C317.197 199.328 325.933 201.536 335.533 201.536ZM593.142 148.544C593.142 150.656 592.95 153.44 592.566 156.896H468.726C470.454 170.336 476.31 181.184 486.294 189.44C496.47 197.504 509.046 201.536 524.022 201.536C542.262 201.536 556.95 195.392 568.086 183.104L583.35 200.96C576.438 209.024 567.798 215.168 557.43 219.392C547.254 223.616 535.83 225.728 523.158 225.728C507.03 225.728 492.726 222.464 480.246 215.936C467.766 209.216 458.07 199.904 451.158 188C444.438 176.096 441.078 162.656 441.078 147.68C441.078 132.896 444.342 119.552 450.87 107.648C457.59 95.744 466.71 86.528 478.23 80C489.942 73.28 503.094 69.92 517.686 69.92C532.278 69.92 545.238 73.28 556.566 80C568.086 86.528 577.014 95.744 583.35 107.648C589.878 119.552 593.142 133.184 593.142 148.544ZM517.686 93.248C504.438 93.248 493.302 97.28 484.278 105.344C475.446 113.408 470.262 123.968 468.726 137.024H566.646C565.11 124.16 559.83 113.696 550.806 105.632C541.974 97.376 530.934 93.248 517.686 93.248ZM636.034 71.36H663.682V136.16H750.658V71.36H778.306V224H750.658V160.064H663.682V224H636.034V71.36ZM909.825 76.544C924.033 76.544 936.705 79.712 947.841 86.048C958.977 92.384 967.617 101.216 973.761 112.544C980.097 123.68 983.265 136.448 983.265 150.848C983.265 165.632 979.905 178.784 973.185 190.304C966.657 201.632 957.345 210.464 945.249 216.8C933.345 223.136 919.713 226.304 904.353 226.304C878.433 226.304 858.369 217.472 844.161 199.808C830.145 181.952 823.137 156.896 823.137 124.64C823.137 93.344 829.569 68.864 842.433 51.2C855.297 33.344 874.977 21.536 901.473 15.776L971.169 0.223997L975.201 25.568L910.977 39.392C891.009 43.808 876.129 51.296 866.337 61.856C856.545 72.416 850.977 87.584 849.633 107.36C856.161 97.568 864.609 89.984 874.977 84.608C885.345 79.232 896.961 76.544 909.825 76.544ZM904.929 203.264C914.721 203.264 923.361 201.056 930.849 196.64C938.529 192.224 944.481 186.176 948.705 178.496C952.929 170.624 955.041 161.696 955.041 151.712C955.041 136.544 950.433 124.352 941.217 115.136C932.001 105.92 919.905 101.312 904.929 101.312C889.953 101.312 877.761 105.92 868.353 115.136C859.137 124.352 854.529 136.544 854.529 151.712C854.529 161.696 856.641 170.624 860.865 178.496C865.281 186.176 871.329 192.224 879.009 196.64C886.689 201.056 895.329 203.264 904.929 203.264ZM1154.76 71.36L1080.74 239.264C1074.21 254.816 1066.53 265.76 1057.7 272.096C1049.06 278.432 1038.6 281.6 1026.31 281.6C1018.82 281.6 1011.53 280.352 1004.42 277.856C997.51 275.552 991.75 272.096 987.142 267.488L998.95 246.752C1006.82 254.24 1015.94 257.984 1026.31 257.984C1033.03 257.984 1038.6 256.16 1043.01 252.512C1047.62 249.056 1051.75 243.008 1055.4 234.368L1060.29 223.712L992.902 71.36H1021.7L1074.98 193.472L1127.69 71.36H1154.76ZM1263.99 69.92C1278.78 69.92 1292.03 73.184 1303.74 79.712C1315.45 86.24 1324.57 95.36 1331.1 107.072C1337.82 118.784 1341.18 132.32 1341.18 147.68C1341.18 163.04 1337.82 176.672 1331.1 188.576C1324.57 200.288 1315.45 209.408 1303.74 215.936C1292.03 222.464 1278.78 225.728 1263.99 225.728C1253.05 225.728 1242.97 223.616 1233.75 219.392C1224.73 215.168 1217.05 209.024 1210.71 200.96V279.872H1183.07V71.36H1209.56V95.552C1215.71 87.104 1223.48 80.768 1232.89 76.544C1242.3 72.128 1252.67 69.92 1263.99 69.92ZM1261.69 201.536C1271.48 201.536 1280.22 199.328 1287.9 194.912C1295.77 190.304 1301.91 183.968 1306.33 175.904C1310.94 167.648 1313.24 158.24 1313.24 147.68C1313.24 137.12 1310.94 127.808 1306.33 119.744C1301.91 111.488 1295.77 105.152 1287.9 100.736C1280.22 96.32 1271.48 94.112 1261.69 94.112C1252.09 94.112 1243.35 96.416 1235.48 101.024C1227.8 105.44 1221.66 111.68 1217.05 119.744C1212.63 127.808 1210.43 137.12 1210.43 147.68C1210.43 158.24 1212.63 167.648 1217.05 175.904C1221.47 183.968 1227.61 190.304 1235.48 194.912C1243.35 199.328 1252.09 201.536 1261.69 201.536ZM1493.67 95.552H1408.99V224H1381.35V71.36H1493.67V95.552Z" fill="white"></path> </svg> 