<?xml version="1.0" encoding="UTF-8"?> <svg xmlns="http://www.w3.org/2000/svg" width="30" height="30" viewBox="0 0 30 30" fill="none"> <path d="M10.8172 2.47692C11.0173 4.05567 10.0524 5.51963 8.66212 5.74674C7.27177 5.97399 5.98252 4.87826 5.78251 3.29963C5.5825 1.72087 6.54735 0.25692 7.93759 0.0298046C9.32783 -0.197311 10.6171 0.898156 10.8172 2.47692ZM22.417 6.84326C21.3304 7.0208 20.5764 8.16492 20.7328 9.3986C20.8891 10.6323 21.8967 11.4885 22.9832 11.311C24.0698 11.1335 24.8237 9.98934 24.6674 8.75566C24.511 7.52184 23.5034 6.66572 22.417 6.84326ZM29.9808 18.8099L29.2772 15.1008C29.2522 14.9685 29.2029 14.8436 29.1328 14.7341C29.0626 14.6247 28.973 14.5331 28.8698 14.4654L24.8642 11.8348C24.7861 11.7836 24.7013 11.7468 24.6129 11.7258C24.2772 11.5934 23.9185 11.5543 23.5668 11.6118L22.6207 11.7664C22.1496 11.8433 21.7127 12.0898 21.3743 12.4699C21.2798 12.5315 21.1966 12.6131 21.1292 12.7104L19.3027 15.3498L17.3124 14.514L16.523 10.0985C16.4896 9.91137 16.4186 9.73553 16.3155 9.58467C16.2124 9.43381 16.0801 9.31199 15.9288 9.22869L10.9987 6.51304C10.924 6.47229 10.8455 6.44128 10.7647 6.42059C10.3302 6.2465 9.86493 6.19478 9.4089 6.26988L8.19829 6.46767C7.59032 6.56597 7.02662 6.88476 6.59124 7.37653C6.41862 7.49211 6.27756 7.6597 6.18369 7.86074L3.87458 12.8032L0.957438 13.2176C0.814998 13.2378 0.677463 13.2897 0.552684 13.3703C0.427905 13.4509 0.318326 13.5586 0.230205 13.6873C0.142083 13.816 0.0771443 13.9631 0.039096 14.1203C0.00104774 14.2774 -0.00936439 14.4416 0.00845295 14.6033C0.0262703 14.7651 0.0719684 14.9212 0.142939 15.0629C0.213909 15.2046 0.308763 15.329 0.422082 15.4291C0.535401 15.5292 0.664966 15.6029 0.803382 15.6461C0.941797 15.6893 1.08635 15.7011 1.22879 15.6809L4.7096 15.1864C4.88373 15.1617 5.05006 15.0897 5.19453 14.9766C5.339 14.8635 5.45738 14.7125 5.53965 14.5365L6.1618 13.2049L6.9051 19.07C6.91703 19.1642 6.95108 19.2475 6.99798 19.3187L5.35712 21.482C5.15474 21.7488 5.03877 22.0861 5.02844 22.4381L4.86039 28.1571C4.83538 29.0093 5.42348 29.7232 6.17396 29.7516C6.92317 29.7833 7.5532 29.1124 7.57821 28.2601L7.73028 23.0847L10.8434 18.9803L10.9681 18.9599L11.3061 23.0642C11.3241 23.2838 11.3834 23.4964 11.48 23.6878L14.2721 29.2232C14.3608 29.3992 14.4791 29.5537 14.6204 29.6777C14.7617 29.8017 14.9231 29.8929 15.0954 29.946C15.2677 29.9992 15.4476 30.0133 15.6247 29.9874C15.8018 29.9616 15.9727 29.8964 16.1277 29.7956C16.7793 29.3717 17.0049 28.4284 16.6318 27.6885L13.9862 22.4435L13.458 16.0276C13.4779 15.7764 13.472 15.5235 13.4405 15.2739L12.8061 10.2676L14.4883 11.1942L15.372 16.137C15.4771 16.7255 15.933 17.1314 16.4421 17.1314C16.5141 17.1314 16.5873 17.1233 16.6607 17.1064C16.9377 17.0427 17.182 16.8592 17.3421 16.5947L19.2938 17.4143C19.4633 17.4855 19.6484 17.4938 19.8223 17.438C19.9963 17.3822 20.1502 17.2653 20.2619 17.1039L20.9182 16.1555L21.6101 21.6151C21.6146 21.6503 21.6236 21.6831 21.6349 21.7146L20.6613 23.2484C20.5619 23.4051 20.4962 23.586 20.4695 23.7767L19.8414 28.2618C19.747 28.9355 20.1515 29.5686 20.7447 29.6756C21.3386 29.7832 21.8955 29.3235 21.9898 28.6499L22.5774 24.4547L24.3938 21.5931L24.5071 21.5746L24.4047 24.5765C24.3984 24.7624 24.4291 24.9475 24.4946 25.1179L25.9659 28.9494C26.0505 29.17 26.19 29.3576 26.3672 29.4894C26.5444 29.6212 26.7517 29.6914 26.9635 29.6913C27.113 29.6912 27.2608 29.6561 27.3977 29.588C27.5286 29.5232 27.6471 29.4298 27.7462 29.313C27.8453 29.1962 27.9232 29.0584 27.9755 28.9074C28.0277 28.7564 28.0532 28.5952 28.0505 28.4331C28.0479 28.2709 28.0171 28.1109 27.96 27.9622L26.5881 24.3898L26.7657 19.1778C26.7692 19.0601 26.7579 18.9425 26.7321 18.8284C26.7283 18.7686 26.725 18.7087 26.7174 18.6485L26.2536 14.9885L27.6865 15.9296L28.3104 19.2185C28.3582 19.47 28.492 19.6896 28.6823 19.8291C28.8727 19.9686 29.1041 20.0166 29.3255 19.9624C29.4352 19.9356 29.5392 19.8845 29.6315 19.8121C29.7238 19.7397 29.8026 19.6473 29.8635 19.5403C29.9243 19.4333 29.966 19.3137 29.9861 19.1883C30.0063 19.063 30.0045 18.9344 29.9808 18.8099Z" fill="white"></path> </svg> 