<?xml version="1.0" encoding="UTF-8"?> <svg xmlns="http://www.w3.org/2000/svg" width="28" height="24" viewBox="0 0 28 24" fill="none"> <path d="M10.75 0.666626V2.62163C9.57417 2.15413 8.31334 1.91329 7.05251 1.91329C4.51667 1.91329 1.98084 2.87663 0.0400085 4.81746L4.75751 9.53496H6.33001V11.1075C7.54834 12.3258 9.13501 12.9633 10.7358 13.0341V16.25H6.50001V20.5C6.50001 22.0583 7.77501 23.3333 9.33334 23.3333H23.5C25.8517 23.3333 27.75 21.435 27.75 19.0833V0.666626H10.75ZM9.17751 9.74746V6.70163H5.94751L4.47418 5.22829C5.29677 4.91084 6.17078 4.74756 7.05251 4.74663C8.95084 4.74663 10.7217 5.48329 12.0675 6.81496L14.065 8.81246L13.7817 9.09579C13.4257 9.45516 13.0021 9.74036 12.5352 9.93489C12.0683 10.1294 11.5675 10.2294 11.0617 10.2291C10.3958 10.2291 9.74417 10.0591 9.17751 9.74746ZM24.9167 19.0833C24.9167 19.8625 24.2792 20.5 23.5 20.5C22.7208 20.5 22.0833 19.8625 22.0833 19.0833V16.25H13.5833V12.5808C14.3908 12.255 15.1417 11.7733 15.7933 11.1216L16.0767 10.8383L20.0858 14.8333H22.0833V12.8358L13.5833 4.37829V3.49996H24.9167V19.0833Z" fill="white"></path> </svg> 