<?xml version="1.0" encoding="UTF-8"?> <svg xmlns="http://www.w3.org/2000/svg" width="28" height="25" viewBox="0 0 28 25" fill="none"> <path d="M16.8267 3.33329L19.2667 5.99996H24.6667V22H3.33332V5.99996H8.73332L11.1733 3.33329H16.8267ZM18 0.666626H9.99999L7.55999 3.33329H3.33332C1.86666 3.33329 0.666656 4.53329 0.666656 5.99996V22C0.666656 23.4666 1.86666 24.6666 3.33332 24.6666H24.6667C26.1333 24.6666 27.3333 23.4666 27.3333 22V5.99996C27.3333 4.53329 26.1333 3.33329 24.6667 3.33329H20.44L18 0.666626ZM14 9.99996C16.2 9.99996 18 11.8 18 14C18 16.2 16.2 18 14 18C11.8 18 9.99999 16.2 9.99999 14C9.99999 11.8 11.8 9.99996 14 9.99996ZM14 7.33329C10.32 7.33329 7.33332 10.32 7.33332 14C7.33332 17.68 10.32 20.6666 14 20.6666C17.68 20.6666 20.6667 17.68 20.6667 14C20.6667 10.32 17.68 7.33329 14 7.33329Z" fill="white"></path> </svg> 