<?xml version="1.0" encoding="UTF-8"?> <svg xmlns="http://www.w3.org/2000/svg" width="142" height="66" viewBox="0 0 142 66" fill="none"> <g filter="url(#filter0_d)"> <rect x="4" width="134" height="58" rx="20" fill="#B9B9B9"></rect> </g> <g filter="url(#filter1_d)"> <path d="M54.4375 30.1699H43.3457V39.2402H56.2305V42H39.9707V16.4062H56.0547V19.1836H43.3457V27.4102H54.4375V30.1699ZM63.2793 22.9805V39.3457H70.2402V22.9805H73.4922V39.3457H80.4355V22.9805H83.7051V39.3457H86.377L86.0605 47.6426H83.1426V42H60.0098V22.9805H63.2793ZM97.8027 42.3516C95.2246 42.3516 93.127 41.5078 91.5098 39.8203C89.8926 38.1211 89.084 35.8535 89.084 33.0176V32.4199C89.084 30.5332 89.4414 28.8516 90.1562 27.375C90.8828 25.8867 91.8906 24.7266 93.1797 23.8945C94.4805 23.0508 95.8867 22.6289 97.3984 22.6289C99.8711 22.6289 101.793 23.4434 103.164 25.0723C104.535 26.7012 105.221 29.0332 105.221 32.0684V33.4219H92.3359C92.3828 35.2969 92.9277 36.8145 93.9707 37.9746C95.0254 39.123 96.3613 39.6973 97.9785 39.6973C99.127 39.6973 100.1 39.4629 100.896 38.9941C101.693 38.5254 102.391 37.9043 102.988 37.1309L104.975 38.6777C103.381 41.127 100.99 42.3516 97.8027 42.3516ZM97.3984 25.3008C96.0859 25.3008 94.9844 25.7812 94.0938 26.7422C93.2031 27.6914 92.6523 29.0273 92.4414 30.75H101.969V30.5039C101.875 28.8516 101.43 27.5742 100.633 26.6719C99.8359 25.7578 98.7578 25.3008 97.3984 25.3008ZM91.7207 17.9004C91.7207 17.373 91.8789 16.9336 92.1953 16.582C92.5234 16.2188 93.0039 16.0371 93.6367 16.0371C94.2695 16.0371 94.75 16.2188 95.0781 16.582C95.4062 16.9336 95.5703 17.373 95.5703 17.9004C95.5703 18.4277 95.4062 18.8672 95.0781 19.2188C94.75 19.5703 94.2695 19.7461 93.6367 19.7461C93.0039 19.7461 92.5234 19.5703 92.1953 19.2188C91.8789 18.8672 91.7207 18.4277 91.7207 17.9004ZM99.2793 17.9355C99.2793 17.4082 99.4375 16.9629 99.7539 16.5996C100.082 16.2363 100.562 16.0547 101.195 16.0547C101.828 16.0547 102.309 16.2363 102.637 16.5996C102.965 16.9629 103.129 17.4082 103.129 17.9355C103.129 18.4629 102.965 18.9023 102.637 19.2539C102.309 19.6055 101.828 19.7812 101.195 19.7812C100.562 19.7812 100.082 19.6055 99.7539 19.2539C99.4375 18.9023 99.2793 18.4629 99.2793 17.9355Z" fill="white"></path> </g> <defs> <filter id="filter0_d" x="0" y="0" width="142" height="66" filterUnits="userSpaceOnUse" color-interpolation-filters="sRGB"> <feFlood flood-opacity="0" result="BackgroundImageFix"></feFlood> <feColorMatrix in="SourceAlpha" type="matrix" values="0 0 0 0 0 0 0 0 0 0 0 0 0 0 0 0 0 0 127 0"></feColorMatrix> <feOffset dy="4"></feOffset> <feGaussianBlur stdDeviation="2"></feGaussianBlur> <feColorMatrix type="matrix" values="0 0 0 0 0 0 0 0 0 0 0 0 0 0 0 0 0 0 0.25 0"></feColorMatrix> <feBlend mode="normal" in2="BackgroundImageFix" result="effect1_dropShadow"></feBlend> <feBlend mode="normal" in="SourceGraphic" in2="effect1_dropShadow" result="shape"></feBlend> </filter> <filter id="filter1_d" x="35.9707" y="16.0371" width="73.25" height="39.6055" filterUnits="userSpaceOnUse" color-interpolation-filters="sRGB"> <feFlood flood-opacity="0" result="BackgroundImageFix"></feFlood> <feColorMatrix in="SourceAlpha" type="matrix" values="0 0 0 0 0 0 0 0 0 0 0 0 0 0 0 0 0 0 127 0"></feColorMatrix> <feOffset dy="4"></feOffset> <feGaussianBlur stdDeviation="2"></feGaussianBlur> <feColorMatrix type="matrix" values="0 0 0 0 0 0 0 0 0 0 0 0 0 0 0 0 0 0 0.25 0"></feColorMatrix> <feBlend mode="normal" in2="BackgroundImageFix" result="effect1_dropShadow"></feBlend> <feBlend mode="normal" in="SourceGraphic" in2="effect1_dropShadow" result="shape"></feBlend> </filter> </defs> </svg> 