<?xml version="1.0" encoding="UTF-8"?> <svg xmlns="http://www.w3.org/2000/svg" width="310" height="84" viewBox="0 0 310 84" fill="none"> <g filter="url(#filter0_d)"> <rect x="4" width="302" height="76" rx="20" fill="#B9B9B9"></rect> </g> <g filter="url(#filter1_d)"> <path d="M62.1016 31.2793C62.1016 29.9199 61.6035 28.8418 60.6074 28.0449C59.623 27.2363 58.2344 26.832 56.4414 26.832C54.9414 26.832 53.6816 27.248 52.6621 28.0801C51.6543 28.9004 51.1504 29.9199 51.1504 31.1387H47.7754C47.7754 29.7793 48.1445 28.5605 48.8828 27.4824C49.6328 26.4043 50.6758 25.5664 52.0117 24.9688C53.3477 24.3594 54.8242 24.0547 56.4414 24.0547C59.3008 24.0547 61.5215 24.6992 63.1035 25.9883C64.6855 27.2656 65.4766 29.0469 65.4766 31.332C65.4766 32.5156 65.1133 33.5938 64.3867 34.5664C63.6602 35.5391 62.6465 36.3066 61.3457 36.8691C64.3574 37.877 65.8633 39.875 65.8633 42.8633C65.8633 45.1602 65.0078 46.9824 63.2969 48.3301C61.5859 49.6777 59.3008 50.3516 56.4414 50.3516C54.7422 50.3516 53.1953 50.0527 51.8008 49.4551C50.418 48.8457 49.3398 47.9844 48.5664 46.8711C47.793 45.7578 47.4062 44.4336 47.4062 42.8984H50.7812C50.7812 44.2461 51.3145 45.3711 52.3809 46.2734C53.4473 47.1641 54.8008 47.6094 56.4414 47.6094C58.2812 47.6094 59.7461 47.1816 60.8359 46.3262C61.9375 45.4707 62.4883 44.3398 62.4883 42.9336C62.4883 39.9336 60.6309 38.4043 56.916 38.3457H53.752V35.5684H56.8984C58.6094 35.5332 59.9043 35.1465 60.7832 34.4082C61.6621 33.6699 62.1016 32.627 62.1016 31.2793ZM81.5781 50C81.3906 49.625 81.2383 48.957 81.1211 47.9961C79.6094 49.5664 77.8047 50.3516 75.707 50.3516C73.832 50.3516 72.291 49.8242 71.084 48.7695C69.8887 47.7031 69.291 46.3555 69.291 44.7266C69.291 42.7461 70.041 41.2109 71.541 40.1211C73.0527 39.0195 75.1738 38.4688 77.9043 38.4688H81.0684V36.9746C81.0684 35.8379 80.7285 34.9355 80.0488 34.2676C79.3691 33.5879 78.3672 33.248 77.043 33.248C75.8828 33.248 74.9102 33.541 74.125 34.127C73.3398 34.7129 72.9473 35.4219 72.9473 36.2539H69.6777C69.6777 35.3047 70.0117 34.3906 70.6797 33.5117C71.3594 32.6211 72.2734 31.918 73.4219 31.4023C74.582 30.8867 75.8535 30.6289 77.2363 30.6289C79.4277 30.6289 81.1445 31.1797 82.3867 32.2812C83.6289 33.3711 84.2734 34.877 84.3203 36.7988V45.5527C84.3203 47.2988 84.543 48.6875 84.9883 49.7188V50H81.5781ZM76.1816 47.5215C77.2012 47.5215 78.168 47.2578 79.082 46.7305C79.9961 46.2031 80.6582 45.5176 81.0684 44.6738V40.7715H78.5195C74.5352 40.7715 72.543 41.9375 72.543 44.2695C72.543 45.2891 72.8828 46.0859 73.5625 46.6602C74.2422 47.2344 75.1152 47.5215 76.1816 47.5215ZM97.7676 32.0703C100.158 32.0703 102.068 32.873 103.498 34.4785C104.939 36.0723 105.66 38.1758 105.66 40.7891V41.0879C105.66 42.8809 105.314 44.4863 104.623 45.9043C103.932 47.3105 102.936 48.4062 101.635 49.1914C100.346 49.9648 98.8574 50.3516 97.1699 50.3516C94.6152 50.3516 92.5586 49.502 91 47.8027C89.4414 46.0918 88.6621 43.8008 88.6621 40.9297V39.3477C88.6621 35.3516 89.4004 32.1758 90.877 29.8203C92.3652 27.4648 94.5566 26.0293 97.4512 25.5137C99.0918 25.2207 100.199 24.8633 100.773 24.4414C101.348 24.0195 101.635 23.4395 101.635 22.7012H104.307C104.307 24.166 103.973 25.3086 103.305 26.1289C102.648 26.9492 101.594 27.5293 100.141 27.8691L97.7148 28.4141C95.7812 28.8711 94.3281 29.6445 93.3555 30.7344C92.3945 31.8125 91.7676 33.2539 91.4746 35.0586C93.1973 33.0664 95.2949 32.0703 97.7676 32.0703ZM97.1348 34.7422C95.541 34.7422 94.2754 35.2812 93.3379 36.3594C92.4004 37.4258 91.9316 38.9082 91.9316 40.8066V41.0879C91.9316 43.127 92.4004 44.7441 93.3379 45.9395C94.2871 47.123 95.5645 47.7148 97.1699 47.7148C98.7871 47.7148 100.064 47.1172 101.002 45.9219C101.939 44.7266 102.408 42.9805 102.408 40.6836C102.408 38.8906 101.934 37.4551 100.984 36.377C100.047 35.2871 98.7637 34.7422 97.1348 34.7422ZM125.066 40.7012C125.066 43.5957 124.404 45.9277 123.08 47.6973C121.756 49.4668 119.963 50.3516 117.701 50.3516C115.393 50.3516 113.576 49.6191 112.252 48.1543V57.3125H109V30.9805H111.971L112.129 33.0898C113.453 31.4492 115.293 30.6289 117.648 30.6289C119.934 30.6289 121.738 31.4902 123.062 33.2129C124.398 34.9355 125.066 37.332 125.066 40.4023V40.7012ZM121.814 40.332C121.814 38.1875 121.357 36.4941 120.443 35.252C119.529 34.0098 118.275 33.3887 116.682 33.3887C114.713 33.3887 113.236 34.2617 112.252 36.0078V45.0957C113.225 46.8301 114.713 47.6973 116.717 47.6973C118.275 47.6973 119.512 47.082 120.426 45.8516C121.352 44.6094 121.814 42.7695 121.814 40.332ZM128.354 40.3145C128.354 38.4512 128.717 36.7754 129.443 35.2871C130.182 33.7988 131.201 32.6504 132.502 31.8418C133.814 31.0332 135.309 30.6289 136.984 30.6289C139.574 30.6289 141.666 31.5254 143.26 33.3184C144.865 35.1113 145.668 37.4961 145.668 40.4727V40.7012C145.668 42.5527 145.311 44.2168 144.596 45.6934C143.893 47.1582 142.879 48.3008 141.555 49.1211C140.242 49.9414 138.73 50.3516 137.02 50.3516C134.441 50.3516 132.35 49.4551 130.744 47.6621C129.15 45.8691 128.354 43.4961 128.354 40.543V40.3145ZM131.623 40.7012C131.623 42.8105 132.109 44.5039 133.082 45.7812C134.066 47.0586 135.379 47.6973 137.02 47.6973C138.672 47.6973 139.984 47.0527 140.957 45.7637C141.93 44.4629 142.416 42.6465 142.416 40.3145C142.416 38.2285 141.918 36.541 140.922 35.252C139.938 33.9512 138.625 33.3008 136.984 33.3008C135.379 33.3008 134.084 33.9395 133.1 35.2168C132.115 36.4941 131.623 38.3223 131.623 40.7012ZM165.285 50H162.033V41.8789H153.297V50H150.027V30.9805H153.297V39.2246H162.033V30.9805H165.285V50ZM182.828 30.9805H186.08V50H182.828V36.1309L174.057 50H170.805V30.9805H174.057V44.8672L182.828 30.9805ZM191.6 50V30.9805H199.018C201.549 30.9805 203.488 31.4258 204.836 32.3164C206.195 33.1953 206.875 34.4902 206.875 36.2012C206.875 37.0801 206.611 37.877 206.084 38.5918C205.557 39.2949 204.777 39.834 203.746 40.209C204.895 40.4785 205.814 41.0059 206.506 41.791C207.209 42.5762 207.561 43.5137 207.561 44.6035C207.561 46.3496 206.916 47.6855 205.627 48.6113C204.35 49.5371 202.539 50 200.195 50H191.6ZM194.852 41.6504V47.3809H200.23C201.59 47.3809 202.604 47.1289 203.271 46.625C203.951 46.1211 204.291 45.4121 204.291 44.498C204.291 42.5996 202.896 41.6504 200.107 41.6504H194.852ZM194.852 39.0488H199.053C202.1 39.0488 203.623 38.1582 203.623 36.377C203.623 34.5957 202.182 33.6758 199.299 33.6172H194.852V39.0488ZM223.609 50C223.422 49.625 223.27 48.957 223.152 47.9961C221.641 49.5664 219.836 50.3516 217.738 50.3516C215.863 50.3516 214.322 49.8242 213.115 48.7695C211.92 47.7031 211.322 46.3555 211.322 44.7266C211.322 42.7461 212.072 41.2109 213.572 40.1211C215.084 39.0195 217.205 38.4688 219.936 38.4688H223.1V36.9746C223.1 35.8379 222.76 34.9355 222.08 34.2676C221.4 33.5879 220.398 33.248 219.074 33.248C217.914 33.248 216.941 33.541 216.156 34.127C215.371 34.7129 214.979 35.4219 214.979 36.2539H211.709C211.709 35.3047 212.043 34.3906 212.711 33.5117C213.391 32.6211 214.305 31.918 215.453 31.4023C216.613 30.8867 217.885 30.6289 219.268 30.6289C221.459 30.6289 223.176 31.1797 224.418 32.2812C225.66 33.3711 226.305 34.877 226.352 36.7988V45.5527C226.352 47.2988 226.574 48.6875 227.02 49.7188V50H223.609ZM218.213 47.5215C219.232 47.5215 220.199 47.2578 221.113 46.7305C222.027 46.2031 222.689 45.5176 223.1 44.6738V40.7715H220.551C216.566 40.7715 214.574 41.9375 214.574 44.2695C214.574 45.2891 214.914 46.0859 215.594 46.6602C216.273 47.2344 217.146 47.5215 218.213 47.5215ZM245.301 33.6172H238.92V50H235.668V33.6172H229.41V30.9805H245.301V33.6172ZM252.016 37.5371H256.955C259.111 37.5605 260.816 38.123 262.07 39.2246C263.324 40.3262 263.951 41.8203 263.951 43.707C263.951 45.6055 263.307 47.1289 262.018 48.2773C260.729 49.4258 258.994 50 256.814 50H248.764V30.9805H252.016V37.5371ZM252.016 40.1914V47.3457H256.85C258.068 47.3457 259.012 47.0352 259.68 46.4141C260.348 45.7812 260.682 44.9199 260.682 43.8301C260.682 42.7754 260.354 41.9141 259.697 41.2461C259.053 40.5664 258.145 40.2148 256.973 40.1914H252.016Z" fill="white"></path> </g> <defs> <filter id="filter0_d" x="0" y="0" width="310" height="84" filterUnits="userSpaceOnUse" color-interpolation-filters="sRGB"> <feFlood flood-opacity="0" result="BackgroundImageFix"></feFlood> <feColorMatrix in="SourceAlpha" type="matrix" values="0 0 0 0 0 0 0 0 0 0 0 0 0 0 0 0 0 0 127 0"></feColorMatrix> <feOffset dy="4"></feOffset> <feGaussianBlur stdDeviation="2"></feGaussianBlur> <feColorMatrix type="matrix" values="0 0 0 0 0 0 0 0 0 0 0 0 0 0 0 0 0 0 0.25 0"></feColorMatrix> <feBlend mode="normal" in2="BackgroundImageFix" result="effect1_dropShadow"></feBlend> <feBlend mode="normal" in="SourceGraphic" in2="effect1_dropShadow" result="shape"></feBlend> </filter> <filter id="filter1_d" x="43.4062" y="22.7012" width="224.545" height="42.6113" filterUnits="userSpaceOnUse" color-interpolation-filters="sRGB"> <feFlood flood-opacity="0" result="BackgroundImageFix"></feFlood> <feColorMatrix in="SourceAlpha" type="matrix" values="0 0 0 0 0 0 0 0 0 0 0 0 0 0 0 0 0 0 127 0"></feColorMatrix> <feOffset dy="4"></feOffset> <feGaussianBlur stdDeviation="2"></feGaussianBlur> <feColorMatrix type="matrix" values="0 0 0 0 0 0 0 0 0 0 0 0 0 0 0 0 0 0 0.25 0"></feColorMatrix> <feBlend mode="normal" in2="BackgroundImageFix" result="effect1_dropShadow"></feBlend> <feBlend mode="normal" in="SourceGraphic" in2="effect1_dropShadow" result="shape"></feBlend> </filter> </defs> </svg> 