<?xml version="1.0" encoding="UTF-8"?> <svg xmlns="http://www.w3.org/2000/svg" width="25" height="43" viewBox="0 0 25 43" fill="none"> <path d="M14.2857 16.7222H25L23.8095 21.5H14.2857V43H9.52381V21.5H0V16.7222H9.52381V12.2502C9.52381 7.99083 9.96667 6.44522 10.7952 4.88767C11.6072 3.34876 12.8614 2.0903 14.3952 1.27567C15.9476 0.444333 17.4881 0 21.7333 0C22.9762 0 24.0667 0.119445 25 0.358334V4.77778H21.7333C18.581 4.77778 17.6214 4.96411 16.6429 5.48967C15.919 5.87667 15.381 6.41655 14.9952 7.14278C14.4714 8.12461 14.2857 9.08733 14.2857 12.2502V16.7222Z" fill="white"></path> </svg> 