<?xml version="1.0" encoding="UTF-8"?> <svg xmlns="http://www.w3.org/2000/svg" width="28" height="28" viewBox="0 0 28 28" fill="none"> <path d="M23.3334 0.666626H4.66669C3.60582 0.666626 2.58841 1.08805 1.83826 1.8382C1.08811 2.58834 0.666687 3.60576 0.666687 4.66663V23.3333C0.666687 24.3942 1.08811 25.4116 1.83826 26.1617C2.58841 26.9119 3.60582 27.3333 4.66669 27.3333H23.3334C23.5527 27.3302 23.7713 27.3079 23.9867 27.2666L24.3867 27.1733H24.5467L25.04 26.9866L25.2134 26.8933C25.3467 26.8133 25.4934 26.7466 25.6267 26.6533C25.8047 26.5223 25.974 26.3798 26.1334 26.2266L26.2267 26.1066C26.3576 25.974 26.478 25.8313 26.5867 25.68L26.7067 25.5066C26.7998 25.3582 26.8801 25.2021 26.9467 25.04C26.9833 24.976 27.0145 24.9091 27.04 24.84C27.1067 24.68 27.1467 24.5066 27.2 24.3333V24.1333C27.2756 23.8728 27.3204 23.6043 27.3334 23.3333V4.66663C27.3334 3.60576 26.9119 2.58834 26.1618 1.8382C25.4116 1.08805 24.3942 0.666626 23.3334 0.666626ZM4.66669 24.6666C4.31307 24.6666 3.97393 24.5262 3.72388 24.2761C3.47383 24.0261 3.33335 23.6869 3.33335 23.3333V17.5866L7.72002 13.1866C7.84397 13.0617 7.99144 12.9625 8.15392 12.8948C8.3164 12.8271 8.49067 12.7922 8.66669 12.7922C8.8427 12.7922 9.01698 12.8271 9.17946 12.8948C9.34194 12.9625 9.4894 13.0617 9.61335 13.1866L21.08 24.6666H4.66669ZM24.6667 23.3333C24.6654 23.4977 24.6338 23.6604 24.5734 23.8133C24.5429 23.8783 24.5072 23.9407 24.4667 24C24.431 24.0564 24.3909 24.1099 24.3467 24.16L17.2134 17.0266L18.3867 15.8533C18.5106 15.7283 18.6581 15.6291 18.8206 15.5614C18.9831 15.4937 19.1573 15.4589 19.3334 15.4589C19.5094 15.4589 19.6836 15.4937 19.8461 15.5614C20.0086 15.6291 20.1561 15.7283 20.28 15.8533L24.6667 20.2533V23.3333ZM24.6667 16.48L22.16 14C21.397 13.2759 20.3852 12.8723 19.3334 12.8723C18.2815 12.8723 17.2697 13.2759 16.5067 14L15.3334 15.1733L11.4934 11.3333C10.7303 10.6093 9.71855 10.2057 8.66669 10.2057C7.61482 10.2057 6.60306 10.6093 5.84002 11.3333L3.33335 13.8133V4.66663C3.33335 4.313 3.47383 3.97387 3.72388 3.72382C3.97393 3.47377 4.31307 3.33329 4.66669 3.33329H23.3334C23.687 3.33329 24.0261 3.47377 24.2762 3.72382C24.5262 3.97387 24.6667 4.313 24.6667 4.66663V16.48ZM16 5.99996C15.6045 5.99996 15.2178 6.11726 14.8889 6.33702C14.56 6.55678 14.3036 6.86914 14.1523 7.23459C14.0009 7.60004 13.9613 8.00218 14.0385 8.39014C14.1156 8.7781 14.3061 9.13447 14.5858 9.41417C14.8655 9.69388 15.2219 9.88436 15.6098 9.96153C15.9978 10.0387 16.3999 9.99909 16.7654 9.84772C17.1308 9.69634 17.4432 9.44 17.663 9.1111C17.8827 8.7822 18 8.39552 18 7.99996C18 7.46953 17.7893 6.96082 17.4142 6.58575C17.0392 6.21067 16.5305 5.99996 16 5.99996Z" fill="white"></path> </svg> 