<?xml version="1.0" encoding="UTF-8"?> <svg xmlns="http://www.w3.org/2000/svg" width="41" height="41" viewBox="0 0 41 41" fill="none"> <path d="M27.385 20.5001C27.385 16.6751 24.325 13.6151 20.5 13.6151C16.675 13.6151 13.615 16.6751 13.615 20.5001C13.615 24.3251 16.675 27.3851 20.5 27.3851C24.325 27.3851 27.385 24.3251 27.385 20.5001ZM30.955 20.5001C30.955 26.3651 26.365 30.9551 20.5 30.9551C14.635 30.9551 10.045 26.3651 10.045 20.5001C10.045 14.6351 14.635 10.0451 20.5 10.0451C26.365 10.0451 30.955 14.6351 30.955 20.5001ZM33.76 9.5351C33.76 11.0651 32.74 12.0851 31.21 12.0851C29.68 12.0851 28.66 11.0651 28.66 9.5351C28.66 8.0051 29.68 6.9851 31.21 6.9851C32.74 6.9851 33.76 8.2601 33.76 9.5351ZM20.5 3.6701C17.44 3.6701 11.065 3.4151 8.51498 4.4351C6.72998 5.2001 5.19998 6.7301 4.68998 8.5151C3.66998 11.0651 3.92498 17.4401 3.92498 20.5001C3.92498 23.5601 3.66998 29.9351 4.68998 32.4851C5.19998 34.2701 6.72998 35.8001 8.51498 36.3101C11.065 37.3301 17.695 37.0751 20.5 37.0751C23.305 37.0751 29.935 37.3301 32.485 36.3101C34.27 35.5451 35.545 34.2701 36.31 32.4851C37.33 29.6801 37.075 23.3051 37.075 20.5001C37.075 17.6951 37.33 11.0651 36.31 8.5151C35.8 6.7301 34.27 5.2001 32.485 4.6901C29.935 3.4151 23.56 3.6701 20.5 3.6701ZM40.9 20.5001V28.9151C40.9 31.9751 39.88 35.0351 37.585 37.5851C35.29 39.8801 32.23 40.9001 28.915 40.9001H12.085C9.02497 40.9001 5.96498 39.8801 3.41498 37.5851C1.37498 35.2901 0.0999756 32.2301 0.0999756 28.9151V20.5001V12.0851C0.0999756 8.7701 1.37498 5.7101 3.41498 3.4151C5.96498 1.3751 9.02497 0.100098 12.085 0.100098H28.915C31.975 0.100098 35.035 1.1201 37.585 3.4151C39.625 5.7101 40.9 8.7701 40.9 12.0851V20.5001Z" fill="white"></path> </svg> 